<svg xmlns="http://www.w3.org/2000/svg" xmlns:xlink="http://www.w3.org/1999/xlink" version="1.1" width="256" height="256" viewBox="0 0 256 256" xml:space="preserve">

    <defs>
    </defs>
    <g style="stroke: none; stroke-width: 0; stroke-dasharray: none; stroke-linecap: butt; stroke-linejoin: miter; stroke-miterlimit: 10; fill: none; fill-rule: nonzero; opacity: 1;" transform="translate(1.4065934065934016 1.4065934065934016) scale(2.81 2.81)" >
        <circle cx="45.003" cy="45.003" r="40.053" style="stroke: none; stroke-width: 1; stroke-dasharray: none; stroke-linecap: butt; stroke-linejoin: miter; stroke-miterlimit: 10; fill: rgb(226,247,240); fill-rule: nonzero; opacity: 1;" transform="  matrix(1 0 0 1 0 0) "/>
        <path d="M 45 90 C 20.187 90 0 69.813 0 45 C 0 20.187 20.187 0 45 0 c 24.813 0 45 20.187 45 45 C 90 69.813 69.813 90 45 90 z M 45 8 C 24.598 8 8 24.598 8 45 c 0 20.402 16.598 37 37 37 c 20.402 0 37 -16.598 37 -37 C 82 24.598 65.402 8 45 8 z" style="stroke: none; stroke-width: 1; stroke-dasharray: none; stroke-linecap: butt; stroke-linejoin: miter; stroke-miterlimit: 10; fill: rgb(34,165,175); fill-rule: nonzero; opacity: 1;" transform=" matrix(1 0 0 1 0 0) " stroke-linecap="round" />
        <path d="M 59.755 65.5 c 0.976 0 1.768 -0.792 1.768 -1.768 v -2.755 c 0 -6.083 -4.053 -11.262 -9.591 -12.977 c -1.264 -0.392 -2.13 -1.555 -2.13 -2.878 v 0 c 0 -0.81 0.33 -1.582 0.906 -2.15 c 1.493 -1.472 2.421 -3.514 2.421 -5.776 l 0 -4.372 c 0 -4.408 -3.428 -8.162 -7.833 -8.319 c -4.625 -0.164 -8.426 3.536 -8.426 8.124 v 4.566 c 0 2.262 0.928 4.304 2.421 5.776 c 0.577 0.569 0.906 1.34 0.906 2.15 v 0 c 0 1.324 -0.865 2.487 -2.13 2.878 c -5.538 1.715 -9.591 6.894 -9.591 12.977 v 2.755 c 0 0.976 0.792 1.768 1.768 1.768 H 59.755 z" style="stroke: none; stroke-width: 1; stroke-dasharray: none; stroke-linecap: butt; stroke-linejoin: miter; stroke-miterlimit: 10; fill: rgb(34,165,175); fill-rule: nonzero; opacity: 1;" transform=" matrix(1 0 0 1 0 0) " stroke-linecap="round" />
    </g>
    </svg>