<svg id="Layer_2_00000000198162077103363910000008950689055038106299_" enable-background="new 0 0 512 512" viewBox="0 0 512 512" xmlns="http://www.w3.org/2000/svg" width="40" height="40">
    <g id="Layer_1-2" fill="none" fill-rule="evenodd"><circle cx="240" cy="240" r="240"/>
        <path id="Z" d="m386.2 234.8c-19.7 15.7-42.3 23.5-68 23.5-1 0-2.6-.2-4.8-.5s-3.8-.5-4.8-.5c-.7.7-4 1.2-10 1.5-3 3.3-7.2 8-12.8 14s-12.1 13.3-19.8 22c-9.3 10-21.9 22.5-37.8 37.5-15.8 15-35.2 32.7-58.2 53l-4.5 4.5c3.7 0 7.8.2 12.2.5 4.5.3 9.6.8 15.2 1.5l69.5 18c27.3 7 50.8 10.5 70.5 10.5 33.3 0 57.5-7.5 72.5-22.5l7 1v3c-.7 1-2 2.3-4 4l-57 42c-13.3 10.3-29.8 15.5-49.5 15.5-20.7 0-51.2-6-91.5-18-40.7-11.7-66.8-17.5-78.5-17.5-9 0-20.5 3.3-34.5 10v-4c0-3.7 10.7-13.5 32-29.5l41-30c11.7-10.3 23.1-20.8 34.2-31.2 11.2-10.5 22.1-21.1 32.8-31.8 3.7-3.7 8.2-8.6 13.8-14.8 5.5-6.2 12.1-13.8 19.8-22.8 9.3-11 25.8-30.5 49.5-58.5 8.7-10 18.3-21.8 29-35.5s22.3-29.5 35-47.5c1.7-.3 4.8-1.8 9.5-4.5 1 0 2.2.7 3.5 2-.3 1.7-1.8 4.8-4.5 9.5-7 9-15.6 20.2-25.8 33.8-10.2 13.5-22.1 29.4-35.8 47.8h32.5c7.3 0 15.7-1.2 25-3.5 7.7-2 13.2-3.4 16.8-4.2 3.5-.8 4.4-1.2 2.8-1.2 2 0 3.8 1 5.5 3v3.5c-12.1 5.5-21.4 11-27.8 16.4zm-14.4-105.6c-9.7 13.7-18.6 25.8-26.8 36.2-8.2 10.5-15.6 19.6-22.2 27.2-3.7 4.3-11.8 13.7-24.5 28s-30 33.7-52 58c-3.7 3.7-9.5 9.7-17.5 18s-18.3 18.8-31 31.5c-3.7 4.7-10.7 12.2-21 22.5-20.3 20.3-31.8 30.5-34.5 30.5h-4c0 1.3.3.3 1-3l61-61.5c11.7-11.7 21.8-22.6 30.2-32.8 8.5-10.2 15.6-19.4 21.2-27.8-.7 0-1.3-.3-2-1-8.3-1.3-16.2-2.2-23.5-2.8-7.3-.5-14.3-.8-21-.8-18 0-34.7 3.5-50 10.5.3-1.3 2-3.8 5-7.5 29.7-23.3 54-35 73-35 1.3 0 3.6-.2 6.8-.8 3.2-.5 5.4-.8 6.8-.8-1.3 0 11.3 1 38 3 2.7-3.7 5.3-7.5 8-11.5s5.7-8.3 9-13c7.7-8.7 13.3-16 17-22 27.7-45.7 41.5-72.7 41.5-81 0-2.3-.3-3.5-1-3.5-21 6.7-37.8 10-50.5 10-9.3 0-28.5-3.8-57.5-11.5-30-8.3-48.3-12.5-55-12.5-15.3 0-27.5 6-36.5 18-5.7 7.7-8.5 13.8-8.5 18.5 0 5 1.7 9.4 5 13.2s7.2 5.8 11.5 5.8h6.5c-4 6.3-10.8 13.3-20.5 21-10.7 9.3-19.2 14-25.5 14-12 0-18-6.5-18-19.5 0-13.7 7.8-27.8 23.5-42.5 39.3-37.3 80.2-56 122.5-56 13.3 0 32.2 3.2 56.5 9.5 25 6 44.2 9 57.5 9 10.3 0 23.3-3.5 39-10.5l2 1v5c-.1 8.5-13.2 30.6-39.5 66.9z" fill="#d82e2e" style="fill: rgb(0, 0, 0);"/>
    </g>
</svg>
